<svg id="Layer_1" data-name="Layer 1" xmlns="http://www.w3.org/2000/svg" viewBox="0 0 841.89 510.14"><defs><style>.cls-1{fill:#8d97bb;}.cls-2{fill:#322765;}.cls-3{fill:#6e6c6d;}.cls-4{opacity:0.8;}.cls-5{fill:#1a203d;}.cls-6{fill:#fff8f4;}.cls-7{fill:#a1a0d0;}.cls-8{fill:#242936;}.cls-9{fill:#d9dbd9;}.cls-10{fill:#c1c4c2;}.cls-11{fill:#b2b2b2;}.cls-12{fill:#ced3ec;}.cls-13{fill:none;stroke:#fff;stroke-linecap:round;stroke-linejoin:round;stroke-dasharray:13.84 13.84;}.cls-14{font-size:18px;fill:#fff;font-family:Raleway-ExtraBold, Raleway;font-weight:800;}.cls-15{letter-spacing:0em;}.cls-16{letter-spacing:-0.03em;}.cls-17{letter-spacing:-0.03em;}.cls-18{letter-spacing:-0.03em;}.cls-19{font-size:33px;font-family:DidotLH-Roman, Linotype Didot;font-weight:400;}.cls-20{letter-spacing:-0.03em;}.cls-21{fill:#fcfae0;opacity:0.3;}</style></defs><rect class="cls-1" x="-0.3" y="-42.57" width="841.89" height="595.28"/><rect class="cls-2" x="-1.05" y="291.64" width="841.89" height="218.13"/><rect class="cls-3" x="399.95" y="-23.68" width="41.38" height="47.87"/><g class="cls-4"><rect class="cls-5" x="137.25" y="223.85" width="602.48" height="5.07"/><path class="cls-5" d="M682.46,221.45h11.33c4.22-7.77,4.32-14.92,1.1-17.46a5.9,5.9,0,0,0-4.09-1.1l-.47-7.56-4.25.16-.31,6.92a7.63,7.63,0,0,0-3.94,1.89C678.44,207.52,678.53,214.51,682.46,221.45Z"/><circle class="cls-6" cx="689.07" cy="211.38" r="3.93"/><path class="cls-7" d="M476.48,221.45h11.33c4.22-7.77,4.32-14.92,1.1-17.46a5.9,5.9,0,0,0-4.09-1.1l-.47-7.56-4.25.16-.31,6.92a7.63,7.63,0,0,0-3.94,1.89C472.46,207.52,472.55,214.51,476.48,221.45Z"/><circle class="cls-6" cx="483.09" cy="211.38" r="3.93"/><path class="cls-5" d="M645.16,188.05a11.67,11.67,0,0,0,5-6.71,11.36,11.36,0,0,0-.11-6.17,6,6,0,0,0,2.78.79,5.94,5.94,0,0,0,3-.69A9.53,9.53,0,0,0,655,181a10,10,0,0,0,4.9,6.71q-.21,17.55-.41,35.1a24.82,24.82,0,0,1-14,0Q645.33,205.46,645.16,188.05Z"/><rect class="cls-8" x="649.84" y="175.17" width="5.86" height="5.86"/><path class="cls-9" d="M647.72,220.54a29.53,29.53,0,0,0,5.3.46,28.56,28.56,0,0,0,5.12-.46l.65-31.45a12.22,12.22,0,0,0-12.56.46Q647,205,647.72,220.54Z"/><rect class="cls-5" x="156.73" y="226.01" width="5.07" height="20.55"/><rect class="cls-5" x="707.89" y="226.79" width="5.07" height="20.55"/><path class="cls-5" d="M556.12,188.12a6.12,6.12,0,0,1,3.84-1.61q-.15-5.22-.28-10.46a7.21,7.21,0,0,0,4.17.1l-.52,10.27a5.86,5.86,0,0,1,3.46,1.4c3.18,2.94.7,9.11.27,18a57.17,57.17,0,0,0,1,13.33c0,.57,0,1.15,0,1.72a16.43,16.43,0,0,1-12.23-.09c0-.62,0-1.24-.07-1.86a53.18,53.18,0,0,0,.74-12.29C555.93,197.28,553,191.24,556.12,188.12Z"/><rect class="cls-5" x="559.58" y="175.72" width="4.25" height="4.25"/><path class="cls-10" d="M567.06,198.2c-.06,2.33-2.95,3.91-5.25,4-2.54.08-5.51-1.62-5.63-3.84-.13-2.37,3-4.61,5.9-4.42C564.4,194.09,567.13,195.9,567.06,198.2Z"/><path class="cls-10" d="M566.43,213.5h-8.95v-4.76a24.32,24.32,0,0,0,4.55.43,24,24,0,0,0,4.4-.43Z"/><path class="cls-11" d="M522.75,188.28a6.1,6.1,0,0,1,3.84-1.6c-.09-3.49-.19-7-.28-10.46a7.45,7.45,0,0,0,4.17.1L530,186.59a5.82,5.82,0,0,1,3.46,1.39c3.18,3,.7,9.11.27,18a56.71,56.71,0,0,0,1,13.33V221a16.65,16.65,0,0,1-6.92,1.1,16.37,16.37,0,0,1-5.3-1.2c0-.62-.05-1.23-.08-1.85a53.26,53.26,0,0,0,.74-12.3C522.56,197.44,519.66,191.4,522.75,188.28Z"/><rect class="cls-11" x="526.21" y="175.89" width="4.25" height="4.25"/><path class="cls-5" d="M533.7,198.36c-.07,2.33-3,3.91-5.26,4-2.54.09-5.51-1.62-5.63-3.84-.13-2.37,3.05-4.61,5.9-4.41C531,194.25,533.76,196.06,533.7,198.36Z"/><path class="cls-11" d="M533.06,213.66h-8.95V208.9a22.81,22.81,0,0,0,4.55.43,23.87,23.87,0,0,0,4.4-.43Z"/><path class="cls-12" d="M627.23,195.17a6.75,6.75,0,0,1,3.84-1.36c-.09-3-.18-5.91-.28-8.87a8.68,8.68,0,0,0,2.23.3,8.82,8.82,0,0,0,2-.22l-.53,8.72a6.44,6.44,0,0,1,3.47,1.18c3.18,2.5.7,7.73.27,15.26a40.88,40.88,0,0,0,1,11.31V223a19.34,19.34,0,0,1-6.91.93,19.14,19.14,0,0,1-5.31-1c0-.52,0-1-.08-1.57a38.85,38.85,0,0,0,.75-10.42C627.05,202.94,624.15,197.82,627.23,195.17Z"/><rect class="cls-12" x="630.7" y="184.66" width="4.25" height="3.61"/><path class="cls-10" d="M637.54,215.41h-8.95v-12.2a9.73,9.73,0,0,0,8.95,0Z"/><rect class="cls-5" x="435.65" y="133.85" width="304.08" height="5.07"/><path class="cls-5" d="M191.68,184.56a5.76,5.76,0,0,1,3.84-1.83q-.15-6-.28-12a6.5,6.5,0,0,0,2.23.4,6.25,6.25,0,0,0,1.94-.29l-.52,11.76a5.44,5.44,0,0,1,3.46,1.59c3.18,3.37.7,10.42.27,20.59a74.71,74.71,0,0,0,1,15.26c0,.66,0,1.31,0,2a14.59,14.59,0,0,1-12.23-.11c0-.71-.05-1.41-.07-2.12a69.47,69.47,0,0,0,.74-14.06C191.49,195.05,188.59,188.14,191.68,184.56Z"/><rect class="cls-5" x="195.14" y="170.38" width="4.25" height="4.87"/><path class="cls-10" d="M202.62,196.1c-.06,2.66-3,4.47-5.25,4.56-2.54.1-5.51-1.85-5.63-4.39-.13-2.72,3-5.27,5.9-5.05C200,191.39,202.69,193.47,202.62,196.1Z"/><path class="cls-7" d="M211.86,189.45a6.18,6.18,0,0,1,3.84-1.61c-.1-3.48-.19-7-.29-10.46a7.61,7.61,0,0,0,2.24.36,7.52,7.52,0,0,0,1.94-.26l-.52,10.28a5.86,5.86,0,0,1,3.46,1.39c3.18,2.95.7,9.11.27,18a56.61,56.61,0,0,0,1,13.33v1.73a16.6,16.6,0,0,1-6.91,1.1,16.78,16.78,0,0,1-5.31-1.2c0-.62,0-1.24-.07-1.85a53.26,53.26,0,0,0,.74-12.3C211.67,198.61,208.77,192.57,211.86,189.45Z"/><rect class="cls-5" x="215.32" y="177.06" width="4.25" height="4.25"/><path class="cls-10" d="M222.17,214.83h-9V202.1a9.37,9.37,0,0,0,9,0Z"/><path class="cls-7" d="M229.59,189.45a6.18,6.18,0,0,1,3.84-1.61c-.1-3.48-.19-7-.29-10.46a7.61,7.61,0,0,0,2.24.36,7.52,7.52,0,0,0,1.94-.26l-.53,10.28a5.87,5.87,0,0,1,3.47,1.39c3.18,2.95.7,9.11.27,18a56.61,56.61,0,0,0,1,13.33v1.73a16.6,16.6,0,0,1-6.91,1.1,16.78,16.78,0,0,1-5.31-1.2c0-.62-.05-1.24-.07-1.85a53.26,53.26,0,0,0,.74-12.3C229.4,198.61,226.5,192.57,229.59,189.45Z"/><rect class="cls-5" x="233.05" y="177.06" width="4.25" height="4.25"/><path class="cls-10" d="M240.53,199.53c-.07,2.33-2.95,3.91-5.26,4-2.54.09-5.5-1.62-5.62-3.84-.13-2.37,3-4.61,5.89-4.42C237.87,195.42,240.6,197.23,240.53,199.53Z"/><path class="cls-10" d="M239.89,214.83h-8.95v-4.76a23.49,23.49,0,0,0,8.95,0Z"/><path class="cls-5" d="M172.63,189.45a6.18,6.18,0,0,1,3.84-1.61c-.1-3.48-.19-7-.29-10.46a7.61,7.61,0,0,0,2.24.36,7.52,7.52,0,0,0,1.94-.26l-.52,10.28a5.86,5.86,0,0,1,3.46,1.39c3.18,2.95.7,9.11.27,18a56.61,56.61,0,0,0,1,13.33v1.73a16.6,16.6,0,0,1-6.91,1.1,16.78,16.78,0,0,1-5.31-1.2c0-.62-.05-1.24-.07-1.85A53.26,53.26,0,0,0,173,208C172.44,198.61,169.54,192.57,172.63,189.45Z"/><rect class="cls-5" x="176.09" y="177.06" width="4.25" height="4.25"/><path class="cls-10" d="M183.57,199.53c-.07,2.33-2.95,3.91-5.26,4-2.54.09-5.5-1.62-5.62-3.84-.13-2.37,3-4.61,5.89-4.42C180.91,195.42,183.64,197.23,183.57,199.53Z"/><path class="cls-10" d="M182.94,214.83h-9v-4.76a23.66,23.66,0,0,0,4.55.43,24,24,0,0,0,4.41-.43Z"/><rect class="cls-5" x="456.73" y="135.79" width="5.07" height="20.55"/><rect class="cls-5" x="707.89" y="134.79" width="5.07" height="20.55"/><rect class="cls-12" x="475.85" y="114.3" width="5.82" height="0.84"/><rect class="cls-12" x="478.38" y="114.82" width="0.75" height="5.98"/><path class="cls-12" d="M477.49,120.38h2.26a2.54,2.54,0,0,1,2.54,2.54v9.64a0,0,0,0,1,0,0h-7.06a0,0,0,0,1,0,0v-9.92A2.26,2.26,0,0,1,477.49,120.38Z"/><rect class="cls-12" x="484.83" y="114.3" width="5.82" height="0.84"/><rect class="cls-12" x="487.36" y="114.82" width="0.75" height="5.98"/><path class="cls-12" d="M486.47,120.38h2.26a2.54,2.54,0,0,1,2.54,2.54v9.64a0,0,0,0,1,0,0H484.2a0,0,0,0,1,0,0v-9.92A2.26,2.26,0,0,1,486.47,120.38Z"/><rect class="cls-12" x="466.88" y="114.3" width="5.82" height="0.84"/><rect class="cls-12" x="469.41" y="114.82" width="0.75" height="5.98"/><path class="cls-12" d="M468.52,120.38h2.26a2.54,2.54,0,0,1,2.54,2.54v9.64a0,0,0,0,1,0,0h-7.06a0,0,0,0,1,0,0v-9.92A2.26,2.26,0,0,1,468.52,120.38Z"/><rect class="cls-12" x="457.9" y="114.3" width="5.82" height="0.84"/><rect class="cls-12" x="460.44" y="114.82" width="0.75" height="5.98"/><path class="cls-12" d="M459.54,120.38h2.26a2.54,2.54,0,0,1,2.54,2.54v9.64a0,0,0,0,1,0,0h-7.06a0,0,0,0,1,0,0v-9.92A2.26,2.26,0,0,1,459.54,120.38Z"/><path class="cls-12" d="M709.85,115.93h1.36a2.54,2.54,0,0,1,2.54,2.54v15a0,0,0,0,1,0,0h-6.16a0,0,0,0,1,0,0V118.2A2.26,2.26,0,0,1,709.85,115.93Z"/><path class="cls-12" d="M717.92,115.93h1.36a2.54,2.54,0,0,1,2.54,2.54v15a0,0,0,0,1,0,0h-6.16a0,0,0,0,1,0,0V118.2A2.26,2.26,0,0,1,717.92,115.93Z"/><path class="cls-12" d="M701.78,115.93h1.36a2.54,2.54,0,0,1,2.54,2.54v15a0,0,0,0,1,0,0h-6.16a0,0,0,0,1,0,0V118.2A2.26,2.26,0,0,1,701.78,115.93Z"/><rect class="cls-12" x="637.78" y="123.43" width="5.82" height="0.55"/><rect class="cls-12" x="640.32" y="123.77" width="0.75" height="3.9"/><path class="cls-12" d="M647.61,133.52l-12.68-.19,5.49-7.94Z"/><rect class="cls-12" x="623.2" y="123.43" width="5.82" height="0.55"/><rect class="cls-12" x="625.73" y="123.77" width="0.75" height="3.9"/><path class="cls-12" d="M633,133.52l-12.68-.19,5.5-7.94Z"/><rect class="cls-12" x="572.9" y="112.05" width="5.82" height="1.01"/><rect class="cls-12" x="575.43" y="112.67" width="0.75" height="7.14"/><path class="cls-12" d="M582.75,133.52,569,133.4l3.3-11.42a2.22,2.22,0,0,1,2.26-2.18h2.26a2.5,2.5,0,0,1,2.54,2.45Z"/><rect class="cls-12" x="588.58" y="112.05" width="5.82" height="1.01"/><rect class="cls-12" x="591.12" y="112.67" width="0.75" height="7.14"/><path class="cls-12" d="M598.43,133.52l-13.77-.12L588,122a2.22,2.22,0,0,1,2.26-2.18h2.26a2.5,2.5,0,0,1,2.54,2.45Z"/><rect class="cls-12" x="550.62" y="111.75" width="5.82" height="1.01"/><rect class="cls-12" x="553.16" y="112.37" width="0.75" height="7.14"/><path class="cls-12" d="M552.27,119h2.26a2.54,2.54,0,0,1,2.54,2.54v12a0,0,0,0,1,0,0H550a0,0,0,0,1,0,0V121.26A2.26,2.26,0,0,1,552.27,119Z"/><rect class="cls-12" x="541.65" y="111.75" width="5.82" height="1.01"/><rect class="cls-12" x="544.18" y="112.37" width="0.75" height="7.14"/><path class="cls-12" d="M543.29,119h2.26a2.54,2.54,0,0,1,2.54,2.54v12a0,0,0,0,1,0,0H541a0,0,0,0,1,0,0V121.26A2.26,2.26,0,0,1,543.29,119Z"/><rect class="cls-12" x="523.7" y="111.75" width="5.82" height="1.01"/><rect class="cls-12" x="526.24" y="112.37" width="0.75" height="7.14"/><path class="cls-12" d="M525.34,119h2.26a2.54,2.54,0,0,1,2.54,2.54v12a0,0,0,0,1,0,0h-7.06a0,0,0,0,1,0,0V121.26a2.26,2.26,0,0,1,2.26-2.26Z"/><rect class="cls-12" x="532.68" y="111.75" width="5.82" height="1.01"/><rect class="cls-12" x="535.21" y="112.37" width="0.75" height="7.14"/><path class="cls-12" d="M534.32,119h2.26a2.54,2.54,0,0,1,2.54,2.54v12a0,0,0,0,1,0,0h-7.06a0,0,0,0,1,0,0V121.26A2.26,2.26,0,0,1,534.32,119Z"/><rect class="cls-12" x="514.73" y="111.75" width="5.82" height="1.01"/><rect class="cls-12" x="517.26" y="112.37" width="0.75" height="7.14"/><path class="cls-12" d="M516.37,119h2.26a2.54,2.54,0,0,1,2.54,2.54v12a0,0,0,0,1,0,0h-7.06a0,0,0,0,1,0,0V121.26A2.26,2.26,0,0,1,516.37,119Z"/><rect class="cls-12" x="505.75" y="111.75" width="5.82" height="1.01"/><rect class="cls-12" x="508.29" y="112.37" width="0.75" height="7.14"/><path class="cls-12" d="M507.39,119h2.26a2.54,2.54,0,0,1,2.54,2.54v12a0,0,0,0,1,0,0h-7.06a0,0,0,0,1,0,0V121.26A2.26,2.26,0,0,1,507.39,119Z"/><rect class="cls-12" x="655.38" y="123.15" width="5.82" height="0.55"/><rect class="cls-12" x="657.92" y="123.48" width="0.75" height="3.9"/><path class="cls-12" d="M665.21,133.24l-12.68-.2,5.49-7.93Z"/><path class="cls-12" d="M693.05,116.4h1.36a2.54,2.54,0,0,1,2.54,2.54v15a0,0,0,0,1,0,0h-6.16a0,0,0,0,1,0,0V118.66A2.26,2.26,0,0,1,693.05,116.4Z"/><path class="cls-5" d="M498.9,190.8a9.82,9.82,0,0,1,4.84-1.41c-.12-3.06-.23-6.13-.35-9.2a12.74,12.74,0,0,0,2.81.31,13.81,13.81,0,0,0,2.45-.22l-.66,9a9.49,9.49,0,0,1,4.37,1.23c4,2.59.88,8,.34,15.83a35.16,35.16,0,0,0,1.21,11.73v1.52a29,29,0,0,1-8.71,1,28.26,28.26,0,0,1-6.69-1.05c0-.54-.07-1.09-.1-1.63a32.93,32.93,0,0,0,.94-10.81C498.67,198.86,495,193.55,498.9,190.8Z"/><rect class="cls-5" x="503.27" y="179.9" width="5.36" height="3.74"/><path class="cls-10" d="M507.44,211.79V199.14l6.15,1-.91,10.53Z"/><rect class="cls-5" x="139.34" y="43.12" width="263.23" height="109.92" rx="5.66"/><rect class="cls-13" x="146.12" y="47.44" width="249.68" height="101.28" rx="5.66"/><text class="cls-14" transform="translate(187.21 83.53)">3 <tspan class="cls-15" x="14.44" y="0">S</tspan><tspan x="25.42" y="0">TEPS</tspan><tspan class="cls-16" x="69.66" y="0"> </tspan><tspan class="cls-17" x="73.35" y="0">T</tspan><tspan x="83.93" y="0">O MAKE</tspan><tspan class="cls-18" x="152.35" y="0" xml:space="preserve"> A</tspan><tspan class="cls-19"><tspan x="-26.29" y="39.6">GIN MA</tspan><tspan class="cls-20" x="98.94" y="39.6">R</tspan><tspan x="121.78" y="39.6">TINI</tspan></tspan></text></g><path class="cls-21" d="M657.28,346.47H198L401,23.85H442.4Z"/></svg>